<?xml version="1.0" encoding="UTF-8"?>
<svg version="1.1" xmlns="http://www.w3.org/2000/svg" width="200" height="200">
<path d="M0 0 C8.31657164 6.0129758 14.24954794 13.05788975 17 23 C18.52498856 38.66725086 14.90003803 52.47180816 5 65 C0.54814334 69.67716878 -4.00233275 73.53941856 -10 76 C-9.67 77.98 -9.34 79.96 -9 82 C-9.99 82 -10.98 82 -12 82 C-12 83.98 -12 85.96 -12 88 C-12.33 88 -12.66 88 -13 88 C-13 86.02 -13 84.04 -13 82 C-14.98 82.33 -16.96 82.66 -19 83 C-18.67 80.69 -18.34 78.38 -18 76 C-20.64 75.34 -23.28 74.68 -26 74 C-26.27585937 74.73605469 -26.55171875 75.47210938 -26.8359375 76.23046875 C-30.42088127 84.75974773 -37.10144365 93.76110599 -45.5 98 C-46.7375 98.495 -46.7375 98.495 -48 99 C-47.67 100.65 -47.34 102.3 -47 104 C-47.66 104 -48.32 104 -49 104 C-49.495 105.485 -49.495 105.485 -50 107 C-50 106.34 -50 105.68 -50 105 C-52.64 105 -55.28 105 -58 105 C-57.67 103.35 -57.34 101.7 -57 100 C-57.66386719 99.69707031 -58.32773438 99.39414063 -59.01171875 99.08203125 C-67.10623848 95.24156568 -67.10623848 95.24156568 -69.8125 92.125 C-70.534375 91.42375 -71.25625 90.7225 -72 90 C-75.57082798 90.08501971 -76.99379907 90.99586605 -80 93 C-79.34 94.32 -78.68 95.64 -78 97 C-78.99 98.32 -79.98 99.64 -81 101 C-81 100.01 -81 99.02 -81 98 C-84.465 98.495 -84.465 98.495 -88 99 C-89.04449911 95.86650268 -88.93423645 95.01031744 -88 92 C-88.70125 91.9175 -89.4025 91.835 -90.125 91.75 C-98.8066423 89.48522375 -105.05179384 81.87367775 -109.625 74.5625 C-115.38039306 64.2209811 -120.26460665 51.81702182 -117.23046875 40.00390625 C-114.04759906 29.6437288 -108.8715701 22.33683579 -100 16 C-91.25757015 11.37165479 -83.1872839 11.39597116 -73.73046875 13.9609375 C-71.11803754 14.95508157 -69.67078593 15.90518549 -67.625 17.75 C-64.16598872 20.63393993 -61.17312553 20.10926884 -56.8125 19.75 C-55.62269531 19.60046875 -54.43289062 19.4509375 -53.20703125 19.296875 C-50.38068572 19.03524009 -48.64029162 19.0827771 -46 20 C-45.79375 19.175 -45.5875 18.35 -45.375 17.5 C-42.01391739 8.94451698 -35.71277411 2.57091121 -27.375 -1.25 C-17.77017356 -5.36153974 -9.28784039 -4.81161731 0 0 Z " fill="#12ABD6" transform="translate(150,4)"/>
<path d="M0 0 C8.31657164 6.0129758 14.24954794 13.05788975 17 23 C18.52498856 38.66725086 14.90003803 52.47180816 5 65 C0.54814334 69.67716878 -4.00233275 73.53941856 -10 76 C-9.67 77.98 -9.34 79.96 -9 82 C-9.99 82 -10.98 82 -12 82 C-12 83.98 -12 85.96 -12 88 C-12.33 88 -12.66 88 -13 88 C-13 86.02 -13 84.04 -13 82 C-15.97 82.495 -15.97 82.495 -19 83 C-18.67 80.69 -18.34 78.38 -18 76 C-20.31 75.34 -22.62 74.68 -25 74 C-24.68817931 72.58318366 -24.37551263 71.16655349 -24.0625 69.75 C-23.80146484 68.56664063 -23.80146484 68.56664063 -23.53515625 67.359375 C-23.21186048 65.93404182 -22.86046306 64.51413036 -22.45703125 63.109375 C-20.04744257 51.9881965 -22.47679742 42.12163811 -28.46875 32.6875 C-33.07126386 26.73130559 -39.20768326 23.94445258 -46 21 C-44.83402578 13.28558915 -39.93439181 7.08501345 -33.9296875 2.28125 C-23.02583156 -4.95855718 -11.70115433 -6.06184801 0 0 Z " fill="#FEB252" transform="translate(150,4)"/>
<path d="M0 0 C0.474375 0.45375 0.94875 0.9075 1.4375 1.375 C1.4375 2.035 1.4375 2.695 1.4375 3.375 C0.91800781 3.61734375 0.39851563 3.8596875 -0.13671875 4.109375 C-9.64251113 8.67777799 -14.72873311 14.37223369 -18.71484375 24.22265625 C-21.94187598 36.22364707 -19.4543586 48.97367065 -13.7734375 59.77734375 C-12.0936845 62.68407682 -10.35123587 65.5346189 -8.5625 68.375 C-8.2325 69.035 -7.9025 69.695 -7.5625 70.375 C-9.8725 71.695 -12.1825 73.015 -14.5625 74.375 C-13.9025 75.695 -13.2425 77.015 -12.5625 78.375 C-13.5525 79.695 -14.5425 81.015 -15.5625 82.375 C-15.5625 81.385 -15.5625 80.395 -15.5625 79.375 C-19.0275 79.87 -19.0275 79.87 -22.5625 80.375 C-23.60699911 77.24150268 -23.49673645 76.38531744 -22.5625 73.375 C-23.26375 73.2925 -23.965 73.21 -24.6875 73.125 C-33.3691423 70.86022375 -39.61429384 63.24867775 -44.1875 55.9375 C-49.94289306 45.5959811 -54.82710665 33.19202182 -51.79296875 21.37890625 C-48.61009906 11.0187288 -43.4340701 3.71183579 -34.5625 -2.625 C-22.40133796 -8.595025 -11.25508365 -7.13737012 0 0 Z " fill="#E84F4F" transform="translate(84.5625,22.625)"/>
<path d="M0 0 C0.66 0.433125 1.32 0.86625 2 1.3125 C3.2375 1.9621875 3.2375 1.9621875 4.5 2.625 C7.32928968 4.53477053 8.9485522 6.59929485 11 9.3125 C11.70125 9.93125 12.4025 10.55 13.125 11.1875 C17.24177816 15.85318192 17.18650676 20.78178362 17 26.75 C16.38624938 33.02469749 14.70028737 37.07131046 10 41.3125 C6.9375 43.1875 6.9375 43.1875 4 44.3125 C3.195625 44.663125 2.39125 45.01375 1.5625 45.375 C-1.58215837 46.52548477 -4.77200857 47.4263847 -8 48.3125 C-8 47.6525 -8 46.9925 -8 46.3125 C-9.299375 46.27125 -10.59875 46.23 -11.9375 46.1875 C-17.61095209 45.47606712 -22.38405188 43.93793479 -26 39.3125 C-28.199813 30.10587521 -25.53763257 21.35811764 -21 13.3125 C-17.38741718 7.77659845 -7.24920156 -2.49191304 0 0 Z " fill="#5EC5EB" transform="translate(90,24.6875)"/>
<path d="M0 0 C6.59876893 2.82804383 11.44724717 9.13282982 14.5 15.5 C18.71653287 27.67689312 16.43324895 40.66583005 11 52 C6.02145402 61.58648059 -0.81222064 69.82039821 -11 74 C-10.67 75.98 -10.34 77.96 -10 80 C-10.99 80 -11.98 80 -13 80 C-13 81.98 -13 83.96 -13 86 C-13.33 86 -13.66 86 -14 86 C-14 84.02 -14 82.04 -14 80 C-16.97 80.495 -16.97 80.495 -20 81 C-19.67 78.69 -19.34 76.38 -19 74 C-21.31 73.34 -23.62 72.68 -26 72 C-25.52176907 69.88212017 -25.03970116 67.76503889 -24.5390625 65.65234375 C-23.9485507 63.00963171 -23.9485507 63.00963171 -23.7734375 60.31640625 C-23.49039224 57.59512823 -23.16030289 55.48377337 -22 53 C-19.67005817 51.59839437 -17.3944135 50.90464747 -14.80078125 50.09765625 C-6.68399596 46.91660093 -1.33657246 39.98936477 2.16015625 32.26171875 C5.23218845 23.98866459 5.37532551 14.43188445 2 6.25 C1.62875 5.47140625 1.2575 4.6928125 0.875 3.890625 C0 2 0 2 0 0 Z " fill="#FE9D23" transform="translate(151,6)"/>
<path d="M0 0 C0.886875 0.309375 1.77375 0.61875 2.6875 0.9375 C7.49933446 2.4809186 11.33215261 3.15962852 16.375 2.625 C17.80392578 2.47611328 17.80392578 2.47611328 19.26171875 2.32421875 C22.51898304 1.93855122 25.75899684 1.50415605 29 1 C29.43699219 2.23363281 29.43699219 2.23363281 29.8828125 3.4921875 C32.58645317 10.85493222 35.69308843 17.44343016 40 24 C36.535 25.98 36.535 25.98 33 28 C33.66 29.32 34.32 30.64 35 32 C34.01 33.32 33.02 34.64 32 36 C32 35.01 32 34.02 32 33 C28.535 33.495 28.535 33.495 25 34 C23.95550089 30.86650268 24.06576355 30.01031744 25 27 C24.29875 26.9175 23.5975 26.835 22.875 26.75 C13.79477665 24.38124608 7.66217759 16.42849405 3.0625 8.75 C0 3.44615385 0 3.44615385 0 0 Z " fill="#D40202" transform="translate(37,69)"/>
<path d="M0 0 C3.44585933 1.72292966 5.40248927 3.03878709 7.4375 6.3125 C8.19653674 9.93900889 7.96006591 12.41575392 7 16 C3.82526467 20.08180257 0.97925758 21.72623643 -4 23 C-4.35191406 22.54109375 -4.70382813 22.0821875 -5.06640625 21.609375 C-8.64544715 17.16127195 -11.89472477 14.55263762 -17 12 C-16.34 11.67 -15.68 11.34 -15 11 C-14.9175 10.0925 -14.835 9.185 -14.75 8.25 C-13.92527087 4.67617378 -12.75724439 3.10294009 -9.80859375 0.91796875 C-6.5251845 -0.74855646 -3.55864891 -0.76560574 0 0 Z " fill="#FEC987" transform="translate(126,15)"/>
<path d="M0 0 C2.86473938 1.99286218 4.67590353 3.45595549 5.4140625 6.97265625 C5.53904399 10.01197894 5.1525656 12.60332944 4.0625 15.4375 C0.69169697 17.99113866 -2.8352061 18.40845614 -7 18 C-10.11089806 16.03188082 -11.56344865 14.66896938 -12.5078125 11.05859375 C-12.70363706 8.81512544 -12.6163822 7.16826645 -12 5 C-8.39599398 0.88113597 -5.51038931 -1.17242326 0 0 Z " fill="#F78383" transform="translate(56,33)"/>
<path d="M0 0 C2 3 2 3 1.8125 6.0625 C1 9 1 9 -2 11 C-8.56603774 10.43396226 -8.56603774 10.43396226 -10 9 C-10.45506692 2.85659656 -10.45506692 2.85659656 -8.9375 0 C-5.77203476 -1.63378851 -3.34979714 -0.85267564 0 0 Z " fill="#8CD6F8" transform="translate(88,44)"/>
<path d="M0 0 C0.33 0 0.66 0 1 0 C1.33 10.56 1.66 21.12 2 32 C2.33 32 2.66 32 3 32 C2.9278125 32.54785156 2.855625 33.09570312 2.78125 33.66015625 C1.86811039 41.45989043 1.90589614 49.15801191 2 57 C0.68 57 -0.64 57 -2 57 C-2.33 52.38 -2.66 47.76 -3 43 C-2.67 43 -2.34 43 -2 43 C-0.86696706 38.39932177 -0.78132392 33.90896499 -0.68359375 29.19921875 C-0.66281265 28.36284378 -0.64203156 27.52646881 -0.62062073 26.66474915 C-0.55548966 24.00574579 -0.4964105 21.34664772 -0.4375 18.6875 C-0.39428008 16.87954769 -0.3506647 15.07160478 -0.30664062 13.26367188 C-0.19984584 8.84254378 -0.09847675 4.42132088 0 0 Z M0 39 C1 41 1 41 1 41 Z " fill="#826547" transform="translate(105,143)"/>
<path d="M0 0 C0.886875 0.309375 1.77375 0.61875 2.6875 0.9375 C7.49933446 2.4809186 11.33215261 3.15962852 16.375 2.625 C17.80392578 2.47611328 17.80392578 2.47611328 19.26171875 2.32421875 C22.51898304 1.93855122 25.75899684 1.50415605 29 1 C29 1.99 29 2.98 29 4 C21.17883181 7.5616844 12.33586212 7.48193104 4 6 C3.01 6.495 3.01 6.495 2 7 C0.5393715 4.35261084 0 3.10551666 0 0 Z " fill="#D91819" transform="translate(37,69)"/>
<path d="M0 0 C0.85464844 0.46212891 0.85464844 0.46212891 1.7265625 0.93359375 C5.32976889 2.62375757 9.11389995 3.23087603 13 4 C14.11375 4.226875 15.2275 4.45375 16.375 4.6875 C19.10537107 5.20163023 19.10537107 5.20163023 22 4 C22.99 4 23.98 4 25 4 C24.4375 5.9375 24.4375 5.9375 23 8 C17.56197276 9.44274192 12.47820952 8.80744585 7 8 C7 7.34 7 6.68 7 6 C4.03 5.505 4.03 5.505 1 5 C0.67 3.35 0.34 1.7 0 0 Z " fill="#28AFD9" transform="translate(66,71)"/>
<path d="M0 0 C10.939192 2.80383174 10.939192 2.80383174 15 7 C15 7.66 15 8.32 15 9 C13.02 9.66 11.04 10.32 9 11 C4 5.25 4 5.25 4 3 C2.68 2.34 1.36 1.68 0 1 C0 0.67 0 0.34 0 0 Z " fill="#D81817" transform="translate(71,17)"/>
<path d="M0 0 C1.3125 2.5625 1.3125 2.5625 2 5 C1.34 5 0.68 5 0 5 C-0.33 5.99 -0.66 6.98 -1 8 C-1 7.34 -1 6.68 -1 6 C-3.64 6 -6.28 6 -9 6 C-8.67 4.02 -8.34 2.04 -8 0 C-4.65284689 -1.1157177 -3.28928478 -1.1807689 0 0 Z " fill="#6DB5CE" transform="translate(101,103)"/>
<path d="M0 0 C3.3125 -0.3125 3.3125 -0.3125 7 0 C8.9375 2.5 8.9375 2.5 10 5 C9.01 6.32 8.02 7.64 7 9 C7 8.01 7 7.02 7 6 C4.69 6.33 2.38 6.66 0 7 C-1.04449911 3.86650268 -0.93423645 3.01031744 0 0 Z " fill="#C8564C" transform="translate(62,96)"/>
<path d="M0 0 C1.65 0 3.3 0 5 0 C5.33 1.65 5.66 3.3 6 5 C4.02 5.99 4.02 5.99 2 7 C1.01 6.34 0.02 5.68 -1 5 C-0.67 3.35 -0.34 1.7 0 0 Z " fill="#FC9595" transform="translate(50,39)"/>
<path d="M0 0 C3.19304314 4.08670443 5.42492666 8.4453591 7.75 13.0625 C8.17410156 13.87783203 8.59820312 14.69316406 9.03515625 15.53320312 C9.43089844 16.31759766 9.82664062 17.10199219 10.234375 17.91015625 C10.59756836 18.62308838 10.96076172 19.33602051 11.33496094 20.07055664 C12 22 12 22 11 25 C9.15692045 21.40073658 7.32723483 17.79482969 5.5 14.1875 C4.71302734 12.65125977 4.71302734 12.65125977 3.91015625 11.08398438 C3.41386719 10.10107422 2.91757813 9.11816406 2.40625 8.10546875 C1.94541016 7.19949951 1.48457031 6.29353027 1.00976562 5.36010742 C0 3 0 3 0 0 Z " fill="#7F674B" transform="translate(81,138)"/>
<path d="M0 0 C1.98 0 3.96 0 6 0 C5.67 1.65 5.34 3.3 5 5 C3.02 5.33 1.04 5.66 -1 6 C-0.67 4.02 -0.34 2.04 0 0 Z " fill="#FDC27A" transform="translate(132,81)"/>
<path d="M0 0 C2.625 0.5625 2.625 0.5625 5 2 C5.8125 4.625 5.8125 4.625 6 7 C5.01 7 4.02 7 3 7 C3 8.98 3 10.96 3 13 C2.67 13 2.34 13 2 13 C1.85714286 5.57142857 1.85714286 5.57142857 3 2 C1.02 2 -0.96 2 -3 2 C-2.01 1.34 -1.02 0.68 0 0 Z " fill="#B8884C" transform="translate(135,79)"/>
<path d="M0 0 C1.65 0 3.3 0 5 0 C5 1.65 5 3.3 5 5 C3.35 5 1.7 5 0 5 C0 3.35 0 1.7 0 0 Z " fill="#F67F7F" transform="translate(63,97)"/>
<path d="M0 0 C1.28497537 3.85492611 0.4052209 5.40346836 -0.9375 9.1875 C-1.31777344 10.27417969 -1.69804688 11.36085937 -2.08984375 12.48046875 C-2.39019531 13.31191406 -2.69054687 14.14335937 -3 15 C-4.43410153 11.21180727 -3.51009497 8.93478721 -2.0625 5.25 C-1.49208984 3.77273437 -1.49208984 3.77273437 -0.91015625 2.265625 C-0.60980469 1.51796875 -0.30945313 0.7703125 0 0 Z " fill="#82674B" transform="translate(113,157)"/>
<path d="M0 0 C-0.33 1.65 -0.66 3.3 -1 5 C-2.32 4.34 -3.64 3.68 -5 3 C-5 2.34 -5 1.68 -5 1 C-3 0 -3 0 0 0 Z " fill="#99DCFC" transform="translate(86,47)"/>
<path d="M0 0 C0.33 0 0.66 0 1 0 C1.84681133 5.08086796 2.09038099 9.84828377 2 15 C1.67 15 1.34 15 1 15 C0.15318867 9.91913204 -0.09038099 5.15171623 0 0 Z " fill="#7F674B" transform="translate(101,111)"/>
<path d="M0 0 C0.33 0 0.66 0 1 0 C1.36552803 1.41377782 1.71695495 2.83120576 2.0625 4.25 C2.25972656 5.03890625 2.45695312 5.8278125 2.66015625 6.640625 C3.01497267 9.10394822 2.76877544 10.65604132 2 13 C0.54815522 8.46298506 -0.23509196 4.81938524 0 0 Z " fill="#7F684C" transform="translate(70,105)"/>
<path d="M0 0 C2.50298434 2.93828597 3.46930939 5.17902761 4 9 C1.49701566 6.06171403 0.53069061 3.82097239 0 0 Z " fill="#816649" transform="translate(75,125)"/>
<path d="M0 0 C0.33 0 0.66 0 1 0 C0.67 2.97 0.34 5.94 0 9 C-0.33 9 -0.66 9 -1 9 C-0.67 6.03 -0.34 3.06 0 0 Z " fill="#816649" transform="translate(135,98)"/>
<path d="M0 0 C0.33 0.99 0.66 1.98 1 3 C-0.4375 5.1875 -0.4375 5.1875 -2 7 C-1.125 2.25 -1.125 2.25 0 0 Z " fill="#8E6545" transform="translate(116,150)"/>
<path d="M0 0 C0.33 0.99 0.66 1.98 1 3 C-0.4375 5.1875 -0.4375 5.1875 -2 7 C-1.125 2.25 -1.125 2.25 0 0 Z " fill="#7D684F" transform="translate(120,141)"/>
<path d="M0 0 C0.33 0 0.66 0 1 0 C1 2.97 1 5.94 1 9 C0.67 9 0.34 9 0 9 C0 6.03 0 3.06 0 0 Z " fill="#806647" transform="translate(104,134)"/>
<path d="M0 0 C0.33 0 0.66 0 1 0 C1 2.64 1 5.28 1 8 C0.67 8 0.34 8 0 8 C0 5.36 0 2.72 0 0 Z " fill="#816547" transform="translate(103,126)"/>
<path d="M0 0 C0.625 1.8125 0.625 1.8125 1 4 C0.34 4.99 -0.32 5.98 -1 7 C-0.67 4.69 -0.34 2.38 0 0 Z " fill="#816648" transform="translate(133,107)"/>
<path d="M0 0 C0.66 0.66 1.32 1.32 2 2 C1.625 4.125 1.625 4.125 1 6 C0.67 4.02 0.34 2.04 0 0 Z " fill="#896546" transform="translate(100,180)"/>
<path d="M0 0 C0.66 0.66 1.32 1.32 2 2 C1.67 2.99 1.34 3.98 1 5 C0.67 3.35 0.34 1.7 0 0 Z " fill="#7B6A50" transform="translate(97,172)"/>
<path d="M0 0 C0.66 0.66 1.32 1.32 2 2 C1.67 2.99 1.34 3.98 1 5 C0.67 3.35 0.34 1.7 0 0 Z " fill="#806547" transform="translate(95,167)"/>
<path d="M0 0 C0.33 0.99 0.66 1.98 1 3 C0.34 3.66 -0.32 4.32 -1 5 C-0.67 3.35 -0.34 1.7 0 0 Z " fill="#7B6A51" transform="translate(126,128)"/>
<path d="M0 0 C0.33 0 0.66 0 1 0 C1 1.98 1 3.96 1 6 C0.67 6 0.34 6 0 6 C0 4.02 0 2.04 0 0 Z " fill="#816647" transform="translate(136,92)"/>
<path d="M0 0 C0.33 0.99 0.66 1.98 1 3 C0.01 3.495 0.01 3.495 -1 4 C-0.67 2.68 -0.34 1.36 0 0 Z " fill="#816548" transform="translate(123,135)"/>
<path d="M0 0 C1 4 1 4 1 4 Z " fill="#816647" transform="translate(73,118)"/>
<path d="" fill="#816647" transform="translate(0,0)"/>
<path d="" fill="#816546" transform="translate(0,0)"/>
<path d="" fill="#806646" transform="translate(0,0)"/>
<path d="" fill="#816747" transform="translate(0,0)"/>
<path d="" fill="#806647" transform="translate(0,0)"/>
<path d="" fill="#806547" transform="translate(0,0)"/>
<path d="" fill="#806646" transform="translate(0,0)"/>
<path d="" fill="#816648" transform="translate(0,0)"/>
<path d="" fill="#816647" transform="translate(0,0)"/>
<path d="" fill="#816647" transform="translate(0,0)"/>
<path d="" fill="#816647" transform="translate(0,0)"/>
<path d="" fill="#816648" transform="translate(0,0)"/>
<path d="" fill="#816647" transform="translate(0,0)"/>
<path d="" fill="#816648" transform="translate(0,0)"/>
<path d="" fill="#816647" transform="translate(0,0)"/>
</svg>
